<svg xmlns="http://www.w3.org/2000/svg" viewBox="0 0 1062.73 394.51"><g id="Layer_2" data-name="Layer 2"><g id="Layer_2-2" data-name="Layer 2"><text transform="translate(0 303.78)" font-size="362.93" fill="#fff" font-family="MyriadPro-Regular, Myriad Pro">Z</text><text transform="translate(571.08 303.78)" font-size="362.93" fill="#fff" font-family="MyriadPro-Regular, Myriad Pro">N</text><text transform="translate(840.61 303.78)" font-size="362.93" fill="#fff" font-family="MyriadPro-Regular, Myriad Pro">A</text><path d="M460.5,75.81,444.5,94l-5.94-3.72c-65.26-40.61-150.17-2.59-163.17,73.05-10,58.4,30.1,114.55,88.63,123.85a107.64,107.64,0,0,0,38.75-.89c6.37-1.31,9.76-5.88,8.8-11.78-1.25-7.73-4.85-10.95-12.12-9.86-17.44,2.61-34.48,2.12-51-5a85.57,85.57,0,0,1-51.6-89c4.25-36.12,32.58-66.29,69-73a82.54,82.54,0,0,1,57.37,9.64c1.85,1,3.58,2.34,5.53,3.63a17.43,17.43,0,0,1-1.36,2.32c-1,1.14-2,2.19-2.15,2.35-10.49-3.23-20.09-7.17-30.08-9.08-40.85-7.82-81.62,23.79-86.3,65.12-4.34,38.34,21.55,77.6,65,83.32,7.3,1,14.94,0,22.34-.79,5.65-.62,8.62-5.34,7.88-10.77s-4.58-8.24-10.63-8.18c-7,.06-14.16.82-20.84-.65-22-4.86-36.89-18.45-42.47-40.36-5.68-22.34.8-41.82,18.71-56.38,17.36-14.11,37-16.33,57.68-7.58,1.06.44,2,1.08,3.68,2-1.26,1.6-2.26,3-3.4,4.32-10.36,11.75-20.76,23.45-31.1,35.22-4.9,5.58-5.42,11.63-1.57,16.25,5.06,6.09,12.75,6.19,18.6-.2,8.88-9.71,17.49-19.67,26.21-29.53L474.94,95c1-1.12,1.92-2.28,2.87-3.41,36.25,33.18,54.52,107.28,11.51,166.28-44,60.4-129,72.07-187.24,26S235.42,152.38,283.56,96.05C333.45,37.68,414.54,39.4,460.5,75.81Z" fill="#fff"/></g></g></svg>
