<?xml version="1.0" encoding="UTF-8" standalone="no"?>
<svg
   xmlns:dc="http://purl.org/dc/elements/1.1/"
   xmlns:cc="http://creativecommons.org/ns#"
   xmlns:rdf="http://www.w3.org/1999/02/22-rdf-syntax-ns#"
   xmlns:svg="http://www.w3.org/2000/svg"
   xmlns="http://www.w3.org/2000/svg"
   xmlns:sodipodi="http://sodipodi.sourceforge.net/DTD/sodipodi-0.dtd"
   xmlns:inkscape="http://www.inkscape.org/namespaces/inkscape"
   viewBox="0 0 1058.3681 268.48037"
   version="1.1"
   id="svg12"
   sodipodi:docname="long-logo.svg"
   width="1058.368"
   height="268.48038"
   inkscape:version="1.0.2 (e86c870879, 2021-01-15)">
  <metadata
     id="metadata18">
    <rdf:RDF>
      <cc:Work
         rdf:about="">
        <dc:format>image/svg+xml</dc:format>
        <dc:type
           rdf:resource="http://purl.org/dc/dcmitype/StillImage" />
        <dc:title />
      </cc:Work>
    </rdf:RDF>
  </metadata>
  <defs
     id="defs16" />
  <sodipodi:namedview
     pagecolor="#ffffff"
     bordercolor="#666666"
     borderopacity="1"
     objecttolerance="10"
     gridtolerance="10"
     guidetolerance="10"
     inkscape:pageopacity="0"
     inkscape:pageshadow="2"
     inkscape:window-width="1920"
     inkscape:window-height="1056"
     id="namedview14"
     showgrid="false"
     fit-margin-top="0"
     fit-margin-left="0"
     fit-margin-right="0"
     fit-margin-bottom="0"
     inkscape:zoom="1.0887055"
     inkscape:cx="517.57365"
     inkscape:cy="153.69581"
     inkscape:window-x="0"
     inkscape:window-y="0"
     inkscape:window-maximized="1"
     inkscape:current-layer="svg12"
     inkscape:document-rotation="0" />
  <g
     id="Layer_2"
     data-name="Layer 2"
     transform="translate(-13.79134,-43.559195)"
     inkscape:export-xdpi="96"
     inkscape:export-ydpi="96">
    <g
       id="Layer_2-2"
       data-name="Layer 2">
      <text
         transform="translate(0,303.78)"
         font-size="362.93px"
         fill="#ffffff"
         font-family="MyriadPro-Regular, 'Myriad Pro'"
         id="text2">Z</text>
      <text
         transform="translate(571.08,303.78)"
         font-size="362.93px"
         fill="#ffffff"
         font-family="MyriadPro-Regular, 'Myriad Pro'"
         id="text4">N</text>
      <text
         transform="translate(840.61,303.78)"
         font-size="362.93px"
         fill="#ffffff"
         font-family="MyriadPro-Regular, 'Myriad Pro'"
         id="text6">A</text>
      <path
         d="M 460.5,75.81 444.5,94 438.56,90.28 C 373.3,49.67 288.39,87.69 275.39,163.33 c -10,58.4 30.1,114.55 88.63,123.85 a 107.64,107.64 0 0 0 38.75,-0.89 c 6.37,-1.31 9.76,-5.88 8.8,-11.78 -1.25,-7.73 -4.85,-10.95 -12.12,-9.86 -17.44,2.61 -34.48,2.12 -51,-5 a 85.57,85.57 0 0 1 -51.6,-89 c 4.25,-36.12 32.58,-66.29 69,-73 a 82.54,82.54 0 0 1 57.37,9.64 c 1.85,1 3.58,2.34 5.53,3.63 a 17.43,17.43 0 0 1 -1.36,2.32 c -1,1.14 -2,2.19 -2.15,2.35 -10.49,-3.23 -20.09,-7.17 -30.08,-9.08 -40.85,-7.82 -81.62,23.79 -86.3,65.12 -4.34,38.34 21.55,77.6 65,83.32 7.3,1 14.94,0 22.34,-0.79 5.65,-0.62 8.62,-5.34 7.88,-10.77 -0.74,-5.43 -4.58,-8.24 -10.63,-8.18 -7,0.06 -14.16,0.82 -20.84,-0.65 -22,-4.86 -36.89,-18.45 -42.47,-40.36 -5.68,-22.34 0.8,-41.82 18.71,-56.38 17.36,-14.11 37,-16.33 57.68,-7.58 1.06,0.44 2,1.08 3.68,2 -1.26,1.6 -2.26,3 -3.4,4.32 -10.36,11.75 -20.76,23.45 -31.1,35.22 -4.9,5.58 -5.42,11.63 -1.57,16.25 5.06,6.09 12.75,6.19 18.6,-0.2 8.88,-9.71 17.49,-19.67 26.21,-29.53 L 474.94,95 c 1,-1.12 1.92,-2.28 2.87,-3.41 36.25,33.18 54.52,107.28 11.51,166.28 -44,60.4 -129,72.07 -187.24,26 C 243.84,237.8 235.42,152.38 283.56,96.05 333.45,37.68 414.54,39.4 460.5,75.81 Z"
         fill="#ffffff"
         id="path8" />
    </g>
  </g>
</svg>
