<?xml version="1.0" encoding="UTF-8" standalone="no"?>
<!-- Created with Inkscape (http://www.inkscape.org/) -->

<svg
   width="69.324402mm"
   height="69.319344mm"
   viewBox="0 0 69.324402 69.319344"
   version="1.1"
   id="svg5"
   inkscape:version="1.1 (ce6663b3b7, 2021-05-25)"
   sodipodi:docname="small-logo.svg"
   xmlns:inkscape="http://www.inkscape.org/namespaces/inkscape"
   xmlns:sodipodi="http://sodipodi.sourceforge.net/DTD/sodipodi-0.dtd"
   xmlns="http://www.w3.org/2000/svg"
   xmlns:svg="http://www.w3.org/2000/svg">
  <sodipodi:namedview
     id="namedview7"
     pagecolor="#ffffff"
     bordercolor="#666666"
     borderopacity="1.0"
     inkscape:pageshadow="2"
     inkscape:pageopacity="0.0"
     inkscape:pagecheckerboard="true"
     inkscape:document-units="mm"
     showgrid="false"
     fit-margin-top="0"
     fit-margin-left="0"
     fit-margin-right="0"
     fit-margin-bottom="0"
     inkscape:zoom="0.58796296"
     inkscape:cx="162.4252"
     inkscape:cy="393.73228"
     inkscape:window-width="2560"
     inkscape:window-height="1414"
     inkscape:window-x="0"
     inkscape:window-y="0"
     inkscape:window-maximized="1"
     inkscape:current-layer="layer1" />
  <defs
     id="defs2" />
  <g
     inkscape:label="Layer 1"
     inkscape:groupmode="layer"
     id="layer1"
     transform="translate(-61.943022,-43.99497)">
    <g
       id="Layer_2-2"
       data-name="Layer 2"
       transform="matrix(0.26458333,0,0,0.26458333,-55.904833,133.3534)">
      <path
         d="m 653.61962,-311.96787 -16,18.19 -5.94,-3.72 c -65.26,-40.61 -150.17,-2.59 -163.17,73.05 -10,58.4 30.1,114.55 88.63,123.85 a 107.64,107.64 0 0 0 38.75,-0.89 c 6.37,-1.31 9.76,-5.88 8.8,-11.78 -1.25,-7.73 -4.85,-10.95 -12.12,-9.86 -17.44,2.61 -34.48,2.12 -51,-5 a 85.57,85.57 0 0 1 -51.6,-89 c 4.25,-36.12 32.58,-66.29 69,-73 a 82.54,82.54 0 0 1 57.37,9.64 c 1.85,1 3.58,2.34 5.53,3.63 a 17.43,17.43 0 0 1 -1.36,2.32 c -1,1.14 -2,2.19 -2.15,2.35 -10.49,-3.23 -20.09,-7.17 -30.08,-9.08 -40.85,-7.82 -81.62,23.79 -86.3,65.12 -4.34,38.34 21.55,77.6 65,83.32 7.3,1 14.94,0 22.34,-0.79 5.65,-0.62 8.62,-5.34 7.88,-10.77 -0.74,-5.43 -4.58,-8.24 -10.63,-8.18 -7,0.06 -14.16,0.82 -20.84,-0.65 -22,-4.86 -36.89,-18.45 -42.47,-40.36 -5.68,-22.34 0.8,-41.82 18.71,-56.38 17.36,-14.11 37,-16.33 57.68,-7.58 1.06,0.44 2,1.08 3.68,2 -1.26,1.6 -2.26,3 -3.4,4.32 -10.36,11.75 -20.76,23.45 -31.1,35.22 -4.9,5.58 -5.42,11.63 -1.57,16.25 5.06,6.09 12.75,6.19 18.6,-0.2 8.88,-9.71 17.49,-19.67 26.21,-29.53 l 55.99,-63.3 c 1,-1.12 1.92,-2.28 2.87,-3.41 36.25,33.18 54.52,107.28 11.51,166.28 -44,60.399998 -129,72.069998 -187.24,26 -58.24,-46.07 -66.66,-131.49 -18.52,-187.82 49.89,-58.37 130.98,-56.65 176.94,-20.24 z"
         fill="#ffffff"
         id="path830" />
    </g>
  </g>
</svg>
